<svg width="24" height="24" viewBox="0 0 24 24" fill="none" xmlns="http://www.w3.org/2000/svg">
<path d="M14.8686 5.49463H5.57955C4.70793 5.49463 4 6.20256 4 7.07418V20.4022C4 21.2738 4.70793 21.9817 5.57955 21.9817H14.8686C15.7402 21.9817 16.4482 21.2738 16.4482 20.4022V7.07418C16.4441 6.20256 15.7362 5.49463 14.8686 5.49463ZM15.3392 20.3981C15.3392 20.66 15.1264 20.8728 14.8645 20.8728H5.57546C5.31357 20.8728 5.10078 20.66 5.10078 20.3981V7.07418C5.10078 6.81229 5.31357 6.5995 5.57546 6.5995H14.8645C15.1264 6.5995 15.3392 6.81229 15.3392 7.07418V20.3981Z" fill="#68A4FF" stroke="#68A4FF" stroke-width="0.5"/>
<path d="M18.4204 2H9.13131C8.25969 2 7.55176 2.70793 7.55176 3.57955C7.55176 3.88646 7.79728 4.13199 8.10419 4.13199C8.4111 4.13199 8.65663 3.88646 8.65663 3.57955C8.65663 3.31766 8.86942 3.10487 9.13131 3.10487H18.4204C18.6823 3.10487 18.8951 3.31766 18.8951 3.57955V16.9075C18.8951 17.1694 18.6823 17.3822 18.4204 17.3822C18.1135 17.3822 17.868 17.6277 17.868 17.9347C17.868 18.2416 18.1135 18.4871 18.4204 18.4871C19.292 18.4871 19.9999 17.7792 19.9999 16.9075V3.57955C19.9999 2.70793 19.292 2 18.4204 2Z" fill="#68A4FF" stroke="#68A4FF" stroke-width="0.5"/>
<path d="M10.125 10.125V16.125" stroke="#68A4FF" stroke-width="1.2" stroke-linecap="round" stroke-linejoin="round"/>
<path d="M13.125 13.125H7.125" stroke="#68A4FF" stroke-width="1.2" stroke-linecap="round" stroke-linejoin="round"/>
</svg>
