<svg width="50" height="50" viewBox="0 0 50 50" fill="none" xmlns="http://www.w3.org/2000/svg">
<g clip-path="url(#clip0_3398_4938)">
<path d="M45.0625 13.8047H4.93731C2.20842 13.8209 0.00401349 16.0362 0.00131756 18.7653C-0.000520568 18.7929 -0.000520568 18.8209 0.00131756 18.8486L2.8688 40.2444C2.9036 42.96 5.11353 45.1437 7.82931 45.1461H42.1901C44.9058 45.1437 47.1158 42.96 47.1506 40.2444L49.9985 18.8486C50.0003 18.8209 50.0003 18.7929 49.9985 18.7653C49.9959 16.0362 47.7915 13.8209 45.0625 13.8047Z" fill="url(#paint0_linear_3398_4938)"/>
<path d="M41.401 8.86382H25.2842L22.0981 5.07482C21.9774 4.92973 21.7965 4.84836 21.608 4.85424H8.59889C6.56971 4.85694 4.92532 6.50133 4.92262 8.5305V12.0646H6.14804H45.0429C44.8043 10.2348 43.2462 8.86553 41.401 8.86382Z" fill="white"/>
</g>
<defs>
<linearGradient id="paint0_linear_3398_4938" x1="24.9999" y1="13.8047" x2="24.9999" y2="45.1461" gradientUnits="userSpaceOnUse">
<stop stop-color="white" stop-opacity="0.8"/>
<stop offset="1" stop-color="white" stop-opacity="0.5"/>
</linearGradient>
<clipPath id="clip0_3398_4938">
<rect width="50" height="50" fill="white"/>
</clipPath>
</defs>
</svg>
