<svg width="50" height="50" viewBox="0 0 50 50" fill="none" xmlns="http://www.w3.org/2000/svg">
<path d="M45.0626 13.8047H4.93738C2.20848 13.8209 0.00407453 16.0362 0.0013786 18.7652C-0.000459533 18.7929 -0.000459533 18.8208 0.0013786 18.8485L2.86886 40.2444C2.90367 42.9599 5.11359 45.1436 7.82937 45.1461H42.1902C44.9058 45.1436 47.1159 42.9599 47.1507 40.2444L49.9986 18.8485C50.0004 18.8208 50.0004 18.7929 49.9986 18.7652C49.996 16.0362 47.7916 13.8209 45.0626 13.8047Z" fill="url(#paint0_linear_3283_4053)"/>
<path d="M41.4009 8.86388H25.2842L22.0981 5.07488C21.9774 4.92979 21.7965 4.84842 21.6079 4.8543H8.59887C6.5697 4.857 4.9253 6.50139 4.92261 8.53057V12.0647H6.14803H45.0429C44.8043 10.2349 43.2462 8.8656 41.4009 8.86388Z" fill="#0057FF"/>
<defs>
<linearGradient id="paint0_linear_3283_4053" x1="25" y1="13.8047" x2="25" y2="45.1461" gradientUnits="userSpaceOnUse">
<stop stop-color="#0057FF" stop-opacity="0.8"/>
<stop offset="1" stop-color="#0057FF" stop-opacity="0.5"/>
</linearGradient>
</defs>
</svg>
