<svg width="50" height="50" viewBox="0 0 50 50" fill="none" xmlns="http://www.w3.org/2000/svg">
<g clip-path="url(#clip0_784_23454)">
<path d="M45.0625 13.8047H4.93731C2.20842 13.8209 0.00401349 16.0362 0.00131756 18.7652C-0.000520568 18.7929 -0.000520568 18.8208 0.00131756 18.8485L2.8688 40.2444C2.9036 42.9599 5.11353 45.1436 7.82931 45.1461H42.1901C44.9058 45.1436 47.1158 42.9599 47.1506 40.2444L49.9985 18.8485C50.0003 18.8208 50.0003 18.7929 49.9985 18.7652C49.9959 16.0362 47.7915 13.8209 45.0625 13.8047Z" fill="url(#paint0_linear_784_23454)"/>
<path d="M41.401 8.86535H25.2842L22.0981 5.07634C21.9774 4.93125 21.7966 4.84989 21.608 4.85577H8.5989C6.56973 4.85846 4.92533 6.50286 4.92264 8.53203V12.0661H6.14806H45.0429C44.8043 10.2363 43.2462 8.86706 41.401 8.86535Z" fill="#7AA6FD"/>
</g>
<defs>
<linearGradient id="paint0_linear_784_23454" x1="24.9999" y1="13.8047" x2="24.9999" y2="45.1461" gradientUnits="userSpaceOnUse">
<stop stop-color="#7AA6FD"/>
<stop offset="1" stop-color="#7AA6FD" stop-opacity="0.5"/>
</linearGradient>
<clipPath id="clip0_784_23454">
<rect width="50" height="50" fill="white"/>
</clipPath>
</defs>
</svg>
