<svg width="26" height="26" viewBox="0 0 26 26" fill="none" xmlns="http://www.w3.org/2000/svg">
<path d="M17.254 17.254C16.1746 18.3333 14.6508 19.0317 13 19.0317C11.3492 19.0317 9.82542 18.3651 8.74605 17.254C7.66668 16.1746 6.96826 14.6508 6.96826 13C6.96826 11.3492 7.66668 9.82535 8.74605 8.74598C9.82542 7.66661 11.3492 6.9682 13 6.9682C14.6508 6.9682 16.1746 7.63487 17.254 8.74598C18.3334 9.82535 19.0318 11.3492 19.0318 13C19.0318 14.6508 18.3651 16.1746 17.254 17.254ZM16.1112 9.88885C15.3175 9.09519 14.2064 8.619 13 8.619C11.7937 8.619 10.6826 9.09519 9.88891 9.88885C9.09525 10.6825 8.61906 11.7936 8.61906 13C8.61906 14.2063 9.09525 15.3174 9.88891 16.1111C10.6826 16.9047 11.7937 17.3809 13 17.3809C14.2064 17.3809 15.3175 16.9047 16.1112 16.1111C16.9048 15.3174 17.381 14.2063 17.381 13C17.381 11.7936 16.9048 10.6825 16.1112 9.88885Z" fill="white" stroke="white" stroke-width="0.2"/>
<path d="M24.1746 13.8254H21.7302C21.2857 13.8254 20.9048 13.4445 20.9048 13C20.9048 12.5556 21.2857 12.1746 21.7302 12.1746H24.1746C24.6191 12.1746 25 12.5556 25 13C25 13.4445 24.6191 13.8254 24.1746 13.8254Z" fill="white" stroke="white" stroke-width="0.5"/>
<path d="M13 5.09521C12.5555 5.09521 12.1746 4.71426 12.1746 4.26981V1.82536C12.1746 1.38091 12.5555 0.999959 13 0.999959C13.4444 0.999959 13.8254 1.38091 13.8254 1.82536V4.26981C13.8254 4.71426 13.4444 5.09521 13 5.09521Z" fill="white" stroke="white" stroke-width="0.5"/>
<path d="M21.4761 5.66662L19.7301 7.41266C19.4444 7.73012 18.9047 7.73012 18.5872 7.41266C18.2698 7.0952 18.2698 6.58726 18.5872 6.2698L20.3333 4.52376C20.6507 4.2063 21.1587 4.2063 21.4761 4.52376C21.7936 4.84122 21.7936 5.34916 21.4761 5.66662Z" fill="white" stroke="white" stroke-width="0.5"/>
<path d="M13 25C12.5555 25 12.1746 24.619 12.1746 24.1746V21.7301C12.1746 21.2857 12.5555 20.9047 13 20.9047C13.4444 20.9047 13.8254 21.2857 13.8254 21.7301V24.1746C13.8254 24.619 13.4444 25 13 25Z" fill="white" stroke="white" stroke-width="0.5"/>
<path d="M21.5081 21.4763C21.1906 21.7937 20.6827 21.7937 20.3652 21.4763L18.6192 19.7302C18.3017 19.4128 18.3017 18.9048 18.6192 18.5874C18.9049 18.2699 19.4446 18.2699 19.7621 18.5874L21.5081 20.3334C21.8256 20.6509 21.8256 21.1588 21.5081 21.4763Z" fill="white" stroke="white" stroke-width="0.5"/>
<path d="M4.26985 13.8254H1.8254C1.38095 13.8254 1 13.4445 1 13C1 12.5556 1.34921 12.1746 1.8254 12.1746H4.26985C4.7143 12.1746 5.09525 12.5556 5.09525 13C5.09525 13.4445 4.7143 13.8254 4.26985 13.8254Z" fill="white" stroke="white" stroke-width="0.5"/>
<path d="M7.3809 7.41266C7.09519 7.73012 6.5555 7.73012 6.23804 7.41266L4.492 5.66662C4.17454 5.34916 4.17454 4.84122 4.492 4.52376C4.80946 4.2063 5.3174 4.2063 5.63486 4.52376L7.3809 6.2698C7.69836 6.58726 7.69836 7.0952 7.3809 7.41266Z" fill="white" stroke="white" stroke-width="0.5"/>
<path d="M7.3809 19.7302L5.63486 21.4763C5.3174 21.7937 4.80946 21.7937 4.492 21.4763C4.17454 21.1588 4.17454 20.6509 4.492 20.3334L6.23804 18.5874C6.5555 18.2699 7.06344 18.2699 7.3809 18.5874C7.69836 18.9048 7.69836 19.4128 7.3809 19.7302Z" fill="white" stroke="white" stroke-width="0.5"/>
</svg>
