<svg width="24" height="24" viewBox="0 0 24 24" fill="none" xmlns="http://www.w3.org/2000/svg">
<path d="M2.69219 16.5375V8.92098L7.35418 8.92267C7.47848 8.92287 7.6013 8.89568 7.7139 8.84304C7.8265 8.79039 7.92612 8.71358 8.00567 8.61807L9.85862 6.38438H17.9185C18.3673 6.38438 18.7977 6.56267 19.1151 6.88001C19.4324 7.19736 19.6107 7.62778 19.6107 8.07657V11.6133C19.9576 11.7334 20.2842 11.9348 20.5617 12.2123L21.3029 12.9518V8.07657C21.3029 7.17898 20.9463 6.31815 20.3116 5.68345C19.677 5.04876 18.8161 4.69219 17.9185 4.69219H9.75878L7.88383 3.18614C7.73361 3.06562 7.54677 2.99996 7.35418 3H4.38438C3.48679 3 2.62596 3.35657 1.99126 3.99126C1.35657 4.62596 1 5.48679 1 6.38438V16.5375C1 17.4351 1.35657 18.296 1.99126 18.9306C2.62596 19.5653 3.48679 19.9219 4.38438 19.9219H9.25282L8.51502 19.1875C8.24471 18.9176 8.03879 18.5902 7.9126 18.2297H4.38438C3.93559 18.2297 3.50517 18.0514 3.18782 17.7341C2.87047 17.4167 2.69219 16.9863 2.69219 16.5375ZM4.38438 4.69219H7.05635L8.26119 5.66012L6.9582 7.23048L2.69219 7.22879V6.38438C2.69219 5.93559 2.87047 5.50517 3.18782 5.18782C3.50517 4.87048 3.93559 4.69219 4.38438 4.69219Z" fill="white"/>
<path d="M14.2937 14.6067C14.448 14.4474 14.5336 14.2338 14.532 14.0119C14.5304 13.79 14.4417 13.5777 14.2851 13.4206C14.1284 13.2635 13.9163 13.1742 13.6945 13.172C13.4726 13.1697 13.2588 13.2547 13.099 13.4087L9.70951 16.7896C9.63072 16.8682 9.5682 16.9616 9.52555 17.0644C9.48289 17.1672 9.46094 17.2774 9.46094 17.3887C9.46094 17.5 9.48289 17.6102 9.52555 17.713C9.5682 17.8158 9.63072 17.9091 9.70951 17.9877L13.099 21.367C13.1771 21.4477 13.2706 21.512 13.3739 21.5562C13.4772 21.6004 13.5882 21.6236 13.7006 21.6244C13.8129 21.6252 13.9243 21.6037 14.0282 21.561C14.1321 21.5183 14.2265 21.4553 14.3058 21.3758C14.3851 21.2962 14.4478 21.2017 14.4902 21.0976C14.5326 20.9936 14.5539 20.8822 14.5527 20.7698C14.5516 20.6575 14.5281 20.5465 14.4836 20.4433C14.4392 20.3402 14.3746 20.2469 14.2937 20.169L12.3544 18.2331H20.1114L18.1722 20.169C18.0912 20.2469 18.0267 20.3402 17.9822 20.4433C17.9377 20.5465 17.9142 20.6575 17.9131 20.7698C17.9119 20.8822 17.9332 20.9936 17.9756 21.0976C18.018 21.2017 18.0807 21.2962 18.16 21.3758C18.2393 21.4553 18.3337 21.5183 18.4376 21.561C18.5415 21.6037 18.6529 21.6252 18.7653 21.6244C18.8776 21.6236 18.9887 21.6004 19.0919 21.5562C19.1952 21.512 19.2887 21.4477 19.3668 21.367L22.7512 17.9894C22.83 17.9108 22.8925 17.8175 22.9352 17.7147C22.9778 17.6119 22.9998 17.5017 22.9998 17.3904C22.9998 17.2791 22.9778 17.1689 22.9352 17.0661C22.8925 16.9633 22.83 16.8699 22.7512 16.7913L19.3668 13.4087C19.2073 13.2545 18.9935 13.1692 18.7717 13.1712C18.5499 13.1731 18.3376 13.2621 18.1808 13.419C18.0239 13.5758 17.9349 13.788 17.933 14.0099C17.9311 14.2317 18.0163 14.4455 18.1705 14.605L20.108 16.5409H12.3544L14.2937 14.6084V14.6067Z" fill="white"/>
</svg>
